<?xml version="1.0" standalone="no"?>
<!DOCTYPE svg PUBLIC "-//W3C//DTD SVG 20010904//EN"
 "http://www.w3.org/TR/2001/REC-SVG-20010904/DTD/svg10.dtd">
<svg version="1.0" xmlns="http://www.w3.org/2000/svg"
 width="512.000000pt" height="512.000000pt" viewBox="0 0 512.000000 512.000000"
 preserveAspectRatio="xMidYMid meet">
<metadata>
Created by potrace 1.14, written by Peter Selinger 2001-2017
</metadata>
<g transform="translate(0.000000,512.000000) scale(0.100000,-0.100000)"
fill="#000000" stroke="none">
<path d="M3015 4230 c-253 -3 -471 -10 -485 -15 -40 -13 -50 -25 -50 -61 0
-62 9 -64 332 -64 l288 0 4 -22 c3 -13 8 -383 11 -823 17 -2493 12 -2333 70
-2355 40 -15 54 -12 81 15 l25 25 -2 1583 -1 1582 255 5 c186 4 259 8 269 18
18 18 15 79 -5 100 -21 21 -101 22 -792 12z"/>
<path d="M1389 4210 c-32 -8 -65 -60 -81 -128 -15 -68 -15 -490 2 -1075 14
-493 14 -1296 0 -1716 -6 -184 -9 -344 -6 -357 7 -26 43 -40 124 -50 118 -13
374 83 527 199 127 96 193 200 230 368 22 98 32 473 16 579 -40 259 -140 454
-339 661 l-95 100 20 27 c111 151 204 327 245 467 20 70 23 101 23 250 -1 157
-3 176 -28 250 -65 195 -205 342 -376 396 -70 21 -222 38 -262 29z m295 -173
c96 -44 195 -154 236 -265 73 -194 -46 -650 -219 -835 -70 -74 -139 -115 -202
-119 l-44 -3 -8 350 c-4 193 -6 457 -5 587 3 222 4 238 24 265 11 15 32 34 45
41 33 18 108 8 173 -21z m100 -1436 c146 -101 251 -326 286 -612 16 -137 14
-363 -4 -444 -42 -182 -183 -366 -334 -439 -76 -36 -196 -62 -232 -51 -19 6
-20 14 -20 118 0 144 -19 1270 -22 1361 l-3 69 50 14 c161 48 188 46 279 -16z"/>
</g>
</svg>
